<svg width="25" height="24" viewBox="0 0 25 24" fill="none" xmlns="http://www.w3.org/2000/svg">
<g clip-path="url(#clip0_402_1414)">
<path d="M15.55 5C16.5267 5.19057 17.4244 5.66826 18.1281 6.37194C18.8317 7.07561 19.3094 7.97326 19.5 8.95M15.55 1C17.5793 1.22544 19.4716 2.13417 20.9162 3.57701C22.3609 5.01984 23.272 6.91101 23.5 8.94M22.5 16.92V19.92C22.5011 20.1985 22.4441 20.4742 22.3325 20.7293C22.2209 20.9845 22.0573 21.2136 21.8521 21.4019C21.6468 21.5901 21.4046 21.7335 21.1407 21.8227C20.8769 21.9119 20.5974 21.9451 20.32 21.92C17.2428 21.5856 14.287 20.5341 11.69 18.85C9.27382 17.3147 7.22533 15.2662 5.68999 12.85C3.99997 10.2412 2.94824 7.27099 2.61999 4.18C2.595 3.90347 2.62787 3.62476 2.71649 3.36162C2.80512 3.09849 2.94756 2.85669 3.13476 2.65162C3.32196 2.44655 3.5498 2.28271 3.80379 2.17052C4.05777 2.05833 4.33233 2.00026 4.60999 2H7.60999C8.0953 1.99522 8.56579 2.16708 8.93376 2.48353C9.30173 2.79999 9.54207 3.23945 9.60999 3.72C9.73662 4.68007 9.97144 5.62273 10.31 6.53C10.4445 6.88792 10.4737 7.27691 10.3939 7.65088C10.3141 8.02485 10.1289 8.36811 9.85999 8.64L8.58999 9.91C10.0135 12.4135 12.0864 14.4864 14.59 15.91L15.86 14.64C16.1319 14.3711 16.4751 14.1858 16.8491 14.1061C17.2231 14.0263 17.6121 14.0555 17.97 14.19C18.8773 14.5286 19.8199 14.7634 20.78 14.89C21.2658 14.9585 21.7094 15.2032 22.0265 15.5775C22.3437 15.9518 22.5122 16.4296 22.5 16.92Z" stroke="#717375" stroke-width="2" stroke-linecap="round" stroke-linejoin="round"/>
</g>
<defs>
<clipPath id="clip0_402_1414">
<rect width="24" height="24" fill="white" transform="translate(0.5)"/>
</clipPath>
</defs>
</svg>
